<svg xmlns="http://www.w3.org/2000/svg" viewBox="0 0 425.72 118.09"><defs><style>.cls-1{fill:#fff;}</style></defs><title>avimesa_logo_whiteAsset 1</title><g id="Layer_2" data-name="Layer 2"><g id="Layer_1-2" data-name="Layer 1"><path class="cls-1" d="M148.71,86.28h-8.66l9.6-52.1h11.11l9.59,52.1H161.7l-1.59-11.55H150.3Zm2.88-19.34h7.22l-3.54-22.37h-.14Z"/><path class="cls-1" d="M202,34.18h8.8l-10.9,52.1h-8.94L180,34.18h8.8l6.5,36.15h.14Z"/><path class="cls-1" d="M229.16,85.73V33.63h9v52.1Z"/><path class="cls-1" d="M295,33.91V86h-7.79V45.31H287L278.93,86H274.6l-8.08-40.69h-.14V86h-7.79V33.91h11.76l6.35,30.45h.14l6.35-30.45Z"/><path class="cls-1" d="M313.17,84.9V32.81h23.95V40.6h-15V54h11.54v7.79H322.12v15.3h16V84.9Z"/><path class="cls-1" d="M373.16,45.37c-.36-4.47-2.74-5.77-4.76-5.77-2.89,0-4.48,1.88-4.48,5.12,0,8.88,18.19,13.14,18.19,27.28,0,8.58-5.78,13.34-14.14,13.34s-13.06-6.63-13.42-14.43l8.51-1.22c.36,5.26,2.45,7.86,5.34,7.86,3.1,0,5.19-1.66,5.19-4.76,0-10.32-18.18-13.06-18.18-28,0-8.3,5-13,13.85-13,7.29,0,11.62,5.27,12.41,12.63Z"/><path class="cls-1" d="M404.08,85.73h-8.66l9.6-52.1h11.11l9.59,52.1h-8.65l-1.59-11.55h-9.81ZM407,66.39h7.22L410.64,44h-.14Z"/><path class="cls-1" d="M111.53,43.14,74.94,6.56a22.54,22.54,0,0,0-31.8,0L6.56,43.14a22.54,22.54,0,0,0,0,31.8l36.58,36.59a22.56,22.56,0,0,0,31.8,0l36.59-36.59A22.56,22.56,0,0,0,111.53,43.14ZM35.25,28.39h47V42.58h-47Zm41.64,61L71.67,65.22H46.41L41.19,89.36l-13.87-3L35,51H83.12l7.64,35.34Z"/></g></g></svg>