<svg xmlns="http://www.w3.org/2000/svg" viewBox="0 0 426.14 118.09"><defs><style>.cls-1{fill:#ffc52e;}</style></defs><title>avimesa_logo_mainAsset 1</title><g id="Layer_2" data-name="Layer 2"><g id="Layer_1-2" data-name="Layer 1"><path d="M111.53,43.14,74.94,6.56a22.54,22.54,0,0,0-31.8,0L6.56,43.14a22.54,22.54,0,0,0,0,31.8l36.58,36.59a22.56,22.56,0,0,0,31.8,0l36.59-36.59A22.56,22.56,0,0,0,111.53,43.14Z"/><polygon class="cls-1" points="76.89 89.53 71.67 65.39 46.42 65.39 41.19 89.53 27.32 86.53 34.97 51.19 83.12 51.19 90.77 86.53 76.89 89.53"/><rect class="cls-1" x="35.56" y="28.56" width="46.96" height="14.24"/><path d="M149.12,86.28h-8.66l9.6-52.1h11.11l9.6,52.1h-8.66l-1.59-11.55h-9.81ZM152,66.94h7.21l-3.53-22.37h-.15Z"/><path d="M202.37,34.18h8.8l-10.89,52.1h-8.95l-10.89-52.1h8.8l6.49,36.15h.15Z"/><path d="M229.58,85.73V33.63h8.94v52.1Z"/><path d="M295.36,33.91V86h-7.79V45.31h-.14L279.35,86H275l-8.08-40.69h-.15V86H259V33.91h11.76l6.35,30.45h.14l6.35-30.45Z"/><path d="M313.58,84.9V32.81h24V40.6h-15V54h11.55v7.79H322.53v15.3h16V84.9Z"/><path d="M373.57,45.37c-.36-4.47-2.74-5.77-4.76-5.77-2.88,0-4.47,1.88-4.47,5.12,0,8.88,18.18,13.14,18.18,27.28,0,8.58-5.77,13.34-14.14,13.34S355.32,78.71,355,70.91l8.51-1.22c.36,5.26,2.46,7.86,5.34,7.86,3.1,0,5.2-1.66,5.2-4.76,0-10.32-18.19-13.06-18.19-28,0-8.3,5.06-13,13.86-13,7.28,0,11.61,5.27,12.41,12.63Z"/><path d="M404.49,85.73h-8.66l9.6-52.1h11.11l9.6,52.1h-8.66l-1.59-11.55h-9.81Zm2.89-19.34h7.21L411.06,44h-.15Z"/></g></g></svg>